<svg width="13" height="13" viewBox="0 0 13 13" fill="none" xmlns="http://www.w3.org/2000/svg">
<path d="M6.1031 0C5.62366 0.44675 5.23911 0.985492 4.9724 1.58409C4.70568 2.18268 4.56227 2.82886 4.55071 3.48409C4.53914 4.13931 4.65968 4.79015 4.90511 5.39778C5.15054 6.00541 5.51584 6.55739 5.97923 7.02077C6.44262 7.48416 6.99459 7.84946 7.60222 8.09489C8.20985 8.34033 8.86069 8.46086 9.51591 8.4493C10.1711 8.43774 10.8173 8.29432 11.4159 8.02761C12.0145 7.76089 12.5533 7.37634 13 6.8969C12.7931 10.3031 9.96537 13.0007 6.50716 13.0007C2.91296 13.0007 0 10.0877 0 6.49414C0 3.03594 2.6976 0.208208 6.1031 0Z" fill="#0056BB"/>
</svg>
