<svg width="9" height="13" viewBox="0 0 9 13" fill="none" xmlns="http://www.w3.org/2000/svg">
<path d="M4.49981 13C3.59806 12.9999 2.71713 12.7269 1.97124 12.2162C1.22535 11.7055 0.648905 10.9809 0.316638 10.1361C-0.0156293 9.29133 -0.0883896 8.36546 0.107791 7.47852C0.303972 6.59159 0.760045 5.7845 1.41688 5.16191C2.22211 4.39823 4.1998 3.02326 3.89978 0C7.49994 2.4186 9.30001 4.83721 5.69986 8.46512C6.29989 8.46512 7.19992 8.46512 8.69999 6.97163C8.86199 7.43902 9 7.94149 9 8.46512C9 9.66784 8.52587 10.8213 7.68192 11.6718C6.83798 12.5222 5.69333 13 4.49981 13Z" fill="#FF1F1F"/>
</svg>
