<svg width="13" height="13" viewBox="0 0 13 13" fill="none" xmlns="http://www.w3.org/2000/svg">
<path d="M6.5 0C6.67239 0 6.83772 0.0684819 6.95962 0.190381C7.08152 0.312279 7.15 0.477609 7.15 0.65L7.15 2.6C7.15 2.77239 7.08152 2.93772 6.95962 3.05962C6.83772 3.18152 6.67239 3.25 6.5 3.25C6.32761 3.25 6.16228 3.18152 6.04038 3.05962C5.91848 2.93772 5.85 2.77239 5.85 2.6L5.85 0.65C5.85 0.477609 5.91848 0.312279 6.04038 0.190381C6.16228 0.0684819 6.32761 0 6.5 0ZM6.5 9.75C6.67239 9.75 6.83772 9.81848 6.95962 9.94038C7.08152 10.0623 7.15 10.2276 7.15 10.4L7.15 12.35C7.15 12.5224 7.08152 12.6877 6.95962 12.8096C6.83772 12.9315 6.67239 13 6.5 13C6.32761 13 6.16228 12.9315 6.04038 12.8096C5.91848 12.6877 5.85 12.5224 5.85 12.35L5.85 10.4C5.85 10.2276 5.91848 10.0623 6.04038 9.94038C6.16228 9.81848 6.32761 9.75 6.5 9.75ZM13 6.5C13 6.67239 12.9315 6.83772 12.8096 6.95962C12.6877 7.08152 12.5224 7.15 12.35 7.15L10.4 7.15C10.2276 7.15 10.0623 7.08152 9.94038 6.95962C9.81848 6.83772 9.75 6.67239 9.75 6.5C9.75 6.32761 9.81848 6.16228 9.94038 6.04038C10.0623 5.91848 10.2276 5.85 10.4 5.85L12.35 5.85C12.5224 5.85 12.6877 5.91848 12.8096 6.04038C12.9315 6.16228 13 6.32761 13 6.5ZM3.25 6.5C3.25 6.67239 3.18152 6.83772 3.05962 6.95962C2.93772 7.08152 2.77239 7.15 2.6 7.15L0.65 7.15C0.477609 7.15 0.312279 7.08152 0.190381 6.95962C0.0684819 6.83772 0 6.67239 0 6.5C0 6.32761 0.0684819 6.16228 0.190381 6.04038C0.312279 5.91848 0.477609 5.85 0.65 5.85L2.6 5.85C2.77239 5.85 2.93772 5.91848 3.05962 6.04038C3.18152 6.16228 3.25 6.32761 3.25 6.5ZM11.0961 11.0961C10.9743 11.218 10.809 11.2865 10.6366 11.2865C10.4642 11.2865 10.2989 11.218 10.177 11.0961L8.7984 9.7175C8.68 9.59491 8.61448 9.43072 8.61596 9.26029C8.61744 9.08986 8.6858 8.92683 8.80632 8.80632C8.92683 8.6858 9.08986 8.61744 9.26029 8.61596C9.43072 8.61448 9.59491 8.68 9.7175 8.7984L11.0961 10.1764C11.1566 10.2368 11.2045 10.3085 11.2372 10.3874C11.2699 10.4663 11.2868 10.5509 11.2868 10.6363C11.2868 10.7217 11.2699 10.8063 11.2372 10.8852C11.2045 10.9641 11.1566 11.0358 11.0961 11.0961ZM4.2016 4.2016C4.07971 4.32346 3.91441 4.39191 3.74205 4.39191C3.56969 4.39191 3.40439 4.32346 3.2825 4.2016L1.9045 2.8236C1.78253 2.70172 1.71398 2.53638 1.71392 2.36395C1.71386 2.19153 1.78229 2.02614 1.90418 1.90418C2.02606 1.78221 2.19139 1.71365 2.36382 1.71359C2.53625 1.71353 2.70163 1.78197 2.8236 1.90385L4.2016 3.2825C4.32346 3.40439 4.39191 3.56969 4.39191 3.74205C4.39191 3.91441 4.32346 4.07971 4.2016 4.2016ZM1.9045 11.0961C1.78264 10.9743 1.71419 10.809 1.71419 10.6366C1.71419 10.4642 1.78264 10.2989 1.9045 10.177L3.28315 8.7984C3.34311 8.73632 3.41483 8.6868 3.49414 8.65273C3.57344 8.61867 3.65873 8.60074 3.74504 8.59999C3.83135 8.59924 3.91694 8.61568 3.99682 8.64837C4.0767 8.68105 4.14928 8.72931 4.21031 8.79034C4.27134 8.85137 4.3196 8.92395 4.35228 9.00383C4.38497 9.08371 4.40141 9.1693 4.40066 9.25561C4.39991 9.34192 4.38198 9.42721 4.34792 9.50651C4.31385 9.58582 4.26433 9.65754 4.20225 9.7175L2.82425 11.0961C2.76388 11.1566 2.6922 11.2045 2.61329 11.2372C2.53438 11.2699 2.44979 11.2868 2.36437 11.2868C2.27895 11.2868 2.19437 11.2699 2.11546 11.2372C2.03655 11.2045 1.96487 11.1566 1.9045 11.0961ZM8.7984 4.2016C8.67654 4.07971 8.60809 3.91441 8.60809 3.74205C8.60809 3.56969 8.67654 3.40439 8.7984 3.2825L10.1764 1.90385C10.2983 1.78188 10.4636 1.71333 10.636 1.71327C10.8085 1.71321 10.9739 1.78164 11.0958 1.90353C11.2178 2.02541 11.2863 2.19074 11.2864 2.36317C11.2865 2.5356 11.218 2.70098 11.0961 2.82295L9.7175 4.2016C9.59561 4.32346 9.43031 4.39191 9.25795 4.39191C9.08559 4.39191 8.92029 4.32346 8.7984 4.2016Z" fill="black"/>
</svg>
